<mxfile host="app.diagrams.net" modified="2023-04-05T12:31:38.258Z" agent="Mozilla/5.0 (Windows NT 10.0; Win64; x64) AppleWebKit/537.36 (KHTML, like Gecko) Chrome/111.0.0.0 Safari/537.36" etag="6dbFzrYGar5l5UMiUIZA" version="21.1.1" type="device" pages="3">
  <diagram name="DPU" id="QPTLCppjgoiM24GsJYQH">
    <mxGraphModel dx="1434" dy="764" grid="1" gridSize="10" guides="1" tooltips="1" connect="1" arrows="1" fold="1" page="1" pageScale="1" pageWidth="827" pageHeight="1169" math="0" shadow="0">
      <root>
        <mxCell id="0" />
        <mxCell id="1" parent="0" />
        <mxCell id="RSymFj6cOuLtwZjZF6XB-3" value="System imprez RWSS" style="shape=umlFrame;whiteSpace=wrap;html=1;pointerEvents=0;width=150;height=30;" vertex="1" parent="1">
          <mxGeometry x="150" y="100" width="470" height="520" as="geometry" />
        </mxCell>
        <mxCell id="RSymFj6cOuLtwZjZF6XB-10" style="rounded=0;orthogonalLoop=1;jettySize=auto;html=1;strokeColor=default;endArrow=none;endFill=0;" edge="1" parent="1" source="RSymFj6cOuLtwZjZF6XB-4" target="RSymFj6cOuLtwZjZF6XB-8">
          <mxGeometry relative="1" as="geometry" />
        </mxCell>
        <mxCell id="RSymFj6cOuLtwZjZF6XB-4" value="Działacz&lt;br&gt;" style="shape=umlActor;verticalLabelPosition=bottom;verticalAlign=top;html=1;" vertex="1" parent="1">
          <mxGeometry x="60" y="300" width="20" height="50" as="geometry" />
        </mxCell>
        <mxCell id="RSymFj6cOuLtwZjZF6XB-12" style="rounded=0;orthogonalLoop=1;jettySize=auto;html=1;exitX=0;exitY=0.3333333333333333;exitDx=0;exitDy=0;exitPerimeter=0;entryX=1;entryY=0.5;entryDx=0;entryDy=0;endArrow=none;endFill=0;" edge="1" parent="1" source="RSymFj6cOuLtwZjZF6XB-5" target="RSymFj6cOuLtwZjZF6XB-8">
          <mxGeometry relative="1" as="geometry" />
        </mxCell>
        <mxCell id="RSymFj6cOuLtwZjZF6XB-13" style="edgeStyle=none;shape=connector;rounded=0;orthogonalLoop=1;jettySize=auto;html=1;exitX=0.25;exitY=0.1;exitDx=0;exitDy=0;exitPerimeter=0;labelBackgroundColor=default;strokeColor=default;fontFamily=Helvetica;fontSize=11;fontColor=default;endArrow=none;endFill=0;" edge="1" parent="1" source="RSymFj6cOuLtwZjZF6XB-5" target="RSymFj6cOuLtwZjZF6XB-7">
          <mxGeometry relative="1" as="geometry" />
        </mxCell>
        <mxCell id="RSymFj6cOuLtwZjZF6XB-5" value="Student" style="shape=umlActor;verticalLabelPosition=bottom;verticalAlign=top;html=1;" vertex="1" parent="1">
          <mxGeometry x="710" y="300" width="30" height="60" as="geometry" />
        </mxCell>
        <mxCell id="RSymFj6cOuLtwZjZF6XB-6" value="Zarządzaj imprezą" style="ellipse;whiteSpace=wrap;html=1;" vertex="1" parent="1">
          <mxGeometry x="200" y="150" width="140" height="70" as="geometry" />
        </mxCell>
        <mxCell id="RSymFj6cOuLtwZjZF6XB-7" value="Zapisz udział" style="ellipse;whiteSpace=wrap;html=1;" vertex="1" parent="1">
          <mxGeometry x="400" y="220" width="140" height="70" as="geometry" />
        </mxCell>
        <mxCell id="RSymFj6cOuLtwZjZF6XB-8" value="Generuj raport" style="ellipse;whiteSpace=wrap;html=1;" vertex="1" parent="1">
          <mxGeometry x="190" y="370" width="140" height="70" as="geometry" />
        </mxCell>
        <mxCell id="RSymFj6cOuLtwZjZF6XB-11" style="rounded=0;orthogonalLoop=1;jettySize=auto;html=1;strokeColor=default;endArrow=none;endFill=0;entryX=0;entryY=1;entryDx=0;entryDy=0;exitX=0.75;exitY=0.1;exitDx=0;exitDy=0;exitPerimeter=0;" edge="1" parent="1" source="RSymFj6cOuLtwZjZF6XB-4" target="RSymFj6cOuLtwZjZF6XB-6">
          <mxGeometry relative="1" as="geometry">
            <mxPoint x="100" y="280" as="sourcePoint" />
            <mxPoint x="226" y="333" as="targetPoint" />
          </mxGeometry>
        </mxCell>
      </root>
    </mxGraphModel>
  </diagram>
  <diagram id="6Jdc9JZ8BRYIIAlkyDwQ" name="diagram analityczny">
    <mxGraphModel dx="1434" dy="764" grid="1" gridSize="10" guides="1" tooltips="1" connect="1" arrows="1" fold="1" page="1" pageScale="1" pageWidth="827" pageHeight="1169" math="0" shadow="0">
      <root>
        <mxCell id="0" />
        <mxCell id="1" parent="0" />
        <mxCell id="0IRs5pIdmNysr1dZzuha-1" value="System imprez RWSS" style="shape=umlFrame;whiteSpace=wrap;html=1;pointerEvents=0;width=150;height=30;" vertex="1" parent="1">
          <mxGeometry x="120" y="100" width="560" height="520" as="geometry" />
        </mxCell>
        <mxCell id="0IRs5pIdmNysr1dZzuha-2" style="rounded=0;orthogonalLoop=1;jettySize=auto;html=1;strokeColor=default;endArrow=none;endFill=0;entryX=-0.01;entryY=0.513;entryDx=0;entryDy=0;entryPerimeter=0;" edge="1" parent="1" source="0IRs5pIdmNysr1dZzuha-3" target="0IRs5pIdmNysr1dZzuha-23">
          <mxGeometry relative="1" as="geometry">
            <mxPoint x="259.79811518872157" y="523.4253022427545" as="targetPoint" />
          </mxGeometry>
        </mxCell>
        <mxCell id="0IRs5pIdmNysr1dZzuha-13" style="edgeStyle=none;shape=connector;rounded=0;orthogonalLoop=1;jettySize=auto;html=1;exitX=0.75;exitY=0.1;exitDx=0;exitDy=0;exitPerimeter=0;entryX=0;entryY=0.513;entryDx=0;entryDy=0;entryPerimeter=0;labelBackgroundColor=default;strokeColor=default;fontFamily=Helvetica;fontSize=11;fontColor=default;endArrow=none;endFill=0;" edge="1" parent="1" source="0IRs5pIdmNysr1dZzuha-3" target="0IRs5pIdmNysr1dZzuha-11">
          <mxGeometry relative="1" as="geometry" />
        </mxCell>
        <mxCell id="0IRs5pIdmNysr1dZzuha-3" value="Działacz&lt;br&gt;" style="shape=umlActor;verticalLabelPosition=bottom;verticalAlign=top;html=1;" vertex="1" parent="1">
          <mxGeometry x="30" y="240" width="20" height="50" as="geometry" />
        </mxCell>
        <mxCell id="0IRs5pIdmNysr1dZzuha-6" value="Student" style="shape=umlActor;verticalLabelPosition=bottom;verticalAlign=top;html=1;" vertex="1" parent="1">
          <mxGeometry x="30" y="410" width="30" height="60" as="geometry" />
        </mxCell>
        <mxCell id="0IRs5pIdmNysr1dZzuha-11" value="Zadządzaj&lt;br&gt;imprezą" style="shape=umlBoundary;whiteSpace=wrap;html=1;fontFamily=Helvetica;fontSize=11;fillColor=#d5e8d4;strokeColor=#82b366;" vertex="1" parent="1">
          <mxGeometry x="130" y="160" width="100" height="80" as="geometry" />
        </mxCell>
        <mxCell id="0IRs5pIdmNysr1dZzuha-30" style="edgeStyle=none;shape=connector;rounded=0;orthogonalLoop=1;jettySize=auto;html=1;labelBackgroundColor=default;strokeColor=default;fontFamily=Helvetica;fontSize=11;fontColor=default;endArrow=none;endFill=0;" edge="1" parent="1" source="0IRs5pIdmNysr1dZzuha-14" target="0IRs5pIdmNysr1dZzuha-17">
          <mxGeometry relative="1" as="geometry" />
        </mxCell>
        <mxCell id="0IRs5pIdmNysr1dZzuha-14" value="C1" style="ellipse;shape=umlControl;whiteSpace=wrap;html=1;fontFamily=Helvetica;fontSize=11;fillColor=#fff2cc;strokeColor=#d6b656;" vertex="1" parent="1">
          <mxGeometry x="270" y="150" width="100" height="90" as="geometry" />
        </mxCell>
        <mxCell id="0IRs5pIdmNysr1dZzuha-16" style="edgeStyle=none;shape=connector;rounded=0;orthogonalLoop=1;jettySize=auto;html=1;exitX=1.01;exitY=0.45;exitDx=0;exitDy=0;exitPerimeter=0;entryX=0.01;entryY=0.522;entryDx=0;entryDy=0;entryPerimeter=0;labelBackgroundColor=default;strokeColor=default;fontFamily=Helvetica;fontSize=11;fontColor=default;endArrow=none;endFill=0;" edge="1" parent="1" source="0IRs5pIdmNysr1dZzuha-11" target="0IRs5pIdmNysr1dZzuha-14">
          <mxGeometry relative="1" as="geometry">
            <mxPoint x="85" y="315" as="sourcePoint" />
            <mxPoint x="200" y="211" as="targetPoint" />
          </mxGeometry>
        </mxCell>
        <mxCell id="0IRs5pIdmNysr1dZzuha-17" value="impreza" style="ellipse;shape=umlEntity;whiteSpace=wrap;html=1;fontFamily=Helvetica;fontSize=11;fillColor=#e1d5e7;strokeColor=#9673a6;" vertex="1" parent="1">
          <mxGeometry x="540" y="160" width="80" height="80" as="geometry" />
        </mxCell>
        <mxCell id="0IRs5pIdmNysr1dZzuha-20" style="edgeStyle=none;shape=connector;rounded=0;orthogonalLoop=1;jettySize=auto;html=1;entryX=0;entryY=0.3333333333333333;entryDx=0;entryDy=0;entryPerimeter=0;labelBackgroundColor=default;strokeColor=default;fontFamily=Helvetica;fontSize=11;fontColor=default;endArrow=none;endFill=0;" edge="1" parent="1" source="0IRs5pIdmNysr1dZzuha-19" target="0IRs5pIdmNysr1dZzuha-6">
          <mxGeometry relative="1" as="geometry" />
        </mxCell>
        <mxCell id="0IRs5pIdmNysr1dZzuha-19" value="zapisz&lt;br&gt;udzial" style="shape=umlBoundary;whiteSpace=wrap;html=1;fontFamily=Helvetica;fontSize=11;fillColor=#d5e8d4;strokeColor=#82b366;" vertex="1" parent="1">
          <mxGeometry x="150" y="430" width="100" height="80" as="geometry" />
        </mxCell>
        <mxCell id="0IRs5pIdmNysr1dZzuha-22" style="edgeStyle=none;shape=connector;rounded=0;orthogonalLoop=1;jettySize=auto;html=1;labelBackgroundColor=default;strokeColor=default;fontFamily=Helvetica;fontSize=11;fontColor=default;endArrow=none;endFill=0;entryX=1.01;entryY=0.513;entryDx=0;entryDy=0;entryPerimeter=0;" edge="1" parent="1" source="0IRs5pIdmNysr1dZzuha-21" target="0IRs5pIdmNysr1dZzuha-19">
          <mxGeometry relative="1" as="geometry" />
        </mxCell>
        <mxCell id="0IRs5pIdmNysr1dZzuha-28" style="edgeStyle=none;shape=connector;rounded=0;orthogonalLoop=1;jettySize=auto;html=1;entryX=0;entryY=1;entryDx=0;entryDy=0;labelBackgroundColor=default;strokeColor=default;fontFamily=Helvetica;fontSize=11;fontColor=default;endArrow=none;endFill=0;" edge="1" parent="1" source="0IRs5pIdmNysr1dZzuha-21" target="0IRs5pIdmNysr1dZzuha-17">
          <mxGeometry relative="1" as="geometry" />
        </mxCell>
        <mxCell id="0IRs5pIdmNysr1dZzuha-21" value="C2" style="ellipse;shape=umlControl;whiteSpace=wrap;html=1;fontFamily=Helvetica;fontSize=11;fillColor=#fff2cc;strokeColor=#d6b656;" vertex="1" parent="1">
          <mxGeometry x="300" y="430" width="70" height="80" as="geometry" />
        </mxCell>
        <mxCell id="0IRs5pIdmNysr1dZzuha-23" value="Generuj &lt;br&gt;raport" style="shape=umlBoundary;whiteSpace=wrap;html=1;fontFamily=Helvetica;fontSize=11;fillColor=#d5e8d4;strokeColor=#82b366;" vertex="1" parent="1">
          <mxGeometry x="140" y="320" width="100" height="80" as="geometry" />
        </mxCell>
        <mxCell id="0IRs5pIdmNysr1dZzuha-26" style="edgeStyle=none;shape=connector;rounded=0;orthogonalLoop=1;jettySize=auto;html=1;labelBackgroundColor=default;strokeColor=default;fontFamily=Helvetica;fontSize=11;fontColor=default;endArrow=none;endFill=0;" edge="1" parent="1" source="0IRs5pIdmNysr1dZzuha-24" target="0IRs5pIdmNysr1dZzuha-23">
          <mxGeometry relative="1" as="geometry" />
        </mxCell>
        <mxCell id="0IRs5pIdmNysr1dZzuha-27" style="edgeStyle=none;shape=connector;rounded=0;orthogonalLoop=1;jettySize=auto;html=1;entryX=0;entryY=0.5;entryDx=0;entryDy=0;labelBackgroundColor=default;strokeColor=default;fontFamily=Helvetica;fontSize=11;fontColor=default;endArrow=none;endFill=0;" edge="1" parent="1" source="0IRs5pIdmNysr1dZzuha-24" target="0IRs5pIdmNysr1dZzuha-25">
          <mxGeometry relative="1" as="geometry" />
        </mxCell>
        <mxCell id="0IRs5pIdmNysr1dZzuha-29" style="edgeStyle=none;shape=connector;rounded=0;orthogonalLoop=1;jettySize=auto;html=1;entryX=0;entryY=0.638;entryDx=0;entryDy=0;entryPerimeter=0;labelBackgroundColor=default;strokeColor=default;fontFamily=Helvetica;fontSize=11;fontColor=default;endArrow=none;endFill=0;" edge="1" parent="1" source="0IRs5pIdmNysr1dZzuha-24" target="0IRs5pIdmNysr1dZzuha-17">
          <mxGeometry relative="1" as="geometry" />
        </mxCell>
        <mxCell id="0IRs5pIdmNysr1dZzuha-24" value="C3" style="ellipse;shape=umlControl;whiteSpace=wrap;html=1;fontFamily=Helvetica;fontSize=11;fillColor=#fff2cc;strokeColor=#d6b656;" vertex="1" parent="1">
          <mxGeometry x="290" y="310" width="70" height="80" as="geometry" />
        </mxCell>
        <mxCell id="0IRs5pIdmNysr1dZzuha-31" style="edgeStyle=none;shape=connector;rounded=0;orthogonalLoop=1;jettySize=auto;html=1;labelBackgroundColor=default;strokeColor=default;fontFamily=Helvetica;fontSize=11;fontColor=default;endArrow=none;endFill=0;" edge="1" parent="1" source="0IRs5pIdmNysr1dZzuha-25" target="0IRs5pIdmNysr1dZzuha-21">
          <mxGeometry relative="1" as="geometry" />
        </mxCell>
        <mxCell id="0IRs5pIdmNysr1dZzuha-25" value="zapisy" style="ellipse;shape=umlEntity;whiteSpace=wrap;html=1;fontFamily=Helvetica;fontSize=11;fillColor=#e1d5e7;strokeColor=#9673a6;" vertex="1" parent="1">
          <mxGeometry x="540" y="390" width="80" height="80" as="geometry" />
        </mxCell>
        <mxCell id="0IRs5pIdmNysr1dZzuha-37" value="view" style="text;html=1;align=center;verticalAlign=middle;resizable=0;points=[];autosize=1;strokeColor=none;fillColor=none;fontSize=11;fontFamily=Helvetica;fontColor=default;" vertex="1" parent="1">
          <mxGeometry x="145" y="625" width="50" height="30" as="geometry" />
        </mxCell>
        <mxCell id="0IRs5pIdmNysr1dZzuha-38" value="controla" style="text;html=1;align=center;verticalAlign=middle;resizable=0;points=[];autosize=1;strokeColor=none;fillColor=none;fontSize=11;fontFamily=Helvetica;fontColor=default;" vertex="1" parent="1">
          <mxGeometry x="330" y="625" width="60" height="30" as="geometry" />
        </mxCell>
        <mxCell id="0IRs5pIdmNysr1dZzuha-39" value="model" style="text;html=1;align=center;verticalAlign=middle;resizable=0;points=[];autosize=1;strokeColor=none;fillColor=none;fontSize=11;fontFamily=Helvetica;fontColor=default;" vertex="1" parent="1">
          <mxGeometry x="585" y="625" width="50" height="30" as="geometry" />
        </mxCell>
      </root>
    </mxGraphModel>
  </diagram>
  <diagram id="LLahfqOjfjS3pHIAuuuk" name="zarządzaj impreza">
    <mxGraphModel dx="1434" dy="764" grid="1" gridSize="10" guides="1" tooltips="1" connect="1" arrows="1" fold="1" page="1" pageScale="1" pageWidth="827" pageHeight="1169" math="0" shadow="0">
      <root>
        <mxCell id="0" />
        <mxCell id="1" parent="0" />
        <mxCell id="kBaDOUDSlbxYAxhQ3MIj-1" value="&lt;b&gt;&lt;font style=&quot;font-size: 20px&quot;&gt;Card title&lt;/font&gt;&lt;/b&gt;&lt;br style=&quot;font-size: 14px&quot;&gt;&lt;br style=&quot;font-size: 14px&quot;&gt;Some quick example text to build on the card title and make up the bulk of the card&#39;s content." style="html=1;shadow=0;dashed=0;shape=mxgraph.bootstrap.rrect;rSize=5;strokeColor=#DFDFDF;html=1;whiteSpace=wrap;fillColor=#ffffff;fontColor=#000000;verticalAlign=bottom;align=left;spacing=20;spacingBottom=50;fontSize=14;fontFamily=Helvetica;" vertex="1" parent="1">
          <mxGeometry x="150" y="120" width="250" height="350" as="geometry" />
        </mxCell>
        <mxCell id="kBaDOUDSlbxYAxhQ3MIj-2" value="Image cap" style="html=1;shadow=0;dashed=0;shape=mxgraph.bootstrap.topButton;rSize=5;perimeter=none;whiteSpace=wrap;fillColor=#868E96;strokeColor=#DFDFDF;fontColor=#DEE2E6;resizeWidth=1;fontSize=18;fontFamily=Helvetica;" vertex="1" parent="kBaDOUDSlbxYAxhQ3MIj-1">
          <mxGeometry width="250" height="180" relative="1" as="geometry" />
        </mxCell>
        <mxCell id="kBaDOUDSlbxYAxhQ3MIj-3" value="Go somewhere" style="html=1;shadow=0;dashed=0;shape=mxgraph.bootstrap.rrect;rSize=5;perimeter=none;whiteSpace=wrap;fillColor=#0085FC;strokeColor=none;fontColor=#ffffff;resizeWidth=1;fontSize=14;fontFamily=Helvetica;" vertex="1" parent="kBaDOUDSlbxYAxhQ3MIj-1">
          <mxGeometry y="1" width="120" height="40" relative="1" as="geometry">
            <mxPoint x="20" y="-60" as="offset" />
          </mxGeometry>
        </mxCell>
        <mxCell id="Znx6HxjQfEbAznS1fHN6-1" value="&lt;b&gt;&lt;font style=&quot;font-size: 20px&quot;&gt;Card title&lt;/font&gt;&lt;/b&gt;&lt;br style=&quot;font-size: 14px&quot;&gt;&lt;br style=&quot;font-size: 14px&quot;&gt;Some quick example text to build on the card title and make up the bulk of the card&#39;s content." style="html=1;shadow=0;dashed=0;shape=mxgraph.bootstrap.rrect;rSize=5;strokeColor=#DFDFDF;html=1;whiteSpace=wrap;fillColor=#ffffff;fontColor=#000000;verticalAlign=bottom;align=left;spacing=20;spacingBottom=50;fontSize=14;fontFamily=Helvetica;" vertex="1" parent="1">
          <mxGeometry x="400" y="120" width="250" height="350" as="geometry" />
        </mxCell>
        <mxCell id="Znx6HxjQfEbAznS1fHN6-2" value="Image cap" style="html=1;shadow=0;dashed=0;shape=mxgraph.bootstrap.topButton;rSize=5;perimeter=none;whiteSpace=wrap;fillColor=#868E96;strokeColor=#DFDFDF;fontColor=#DEE2E6;resizeWidth=1;fontSize=18;fontFamily=Helvetica;" vertex="1" parent="Znx6HxjQfEbAznS1fHN6-1">
          <mxGeometry width="250" height="180" relative="1" as="geometry" />
        </mxCell>
        <mxCell id="Znx6HxjQfEbAznS1fHN6-3" value="Go somewhere" style="html=1;shadow=0;dashed=0;shape=mxgraph.bootstrap.rrect;rSize=5;perimeter=none;whiteSpace=wrap;fillColor=#0085FC;strokeColor=none;fontColor=#ffffff;resizeWidth=1;fontSize=14;fontFamily=Helvetica;" vertex="1" parent="Znx6HxjQfEbAznS1fHN6-1">
          <mxGeometry y="1" width="120" height="40" relative="1" as="geometry">
            <mxPoint x="20" y="-60" as="offset" />
          </mxGeometry>
        </mxCell>
        <mxCell id="Znx6HxjQfEbAznS1fHN6-4" value="&lt;b&gt;&lt;font style=&quot;font-size: 20px&quot;&gt;Card title&lt;/font&gt;&lt;/b&gt;&lt;br style=&quot;font-size: 14px&quot;&gt;&lt;br style=&quot;font-size: 14px&quot;&gt;Some quick example text to build on the card title and make up the bulk of the card&#39;s content." style="html=1;shadow=0;dashed=0;shape=mxgraph.bootstrap.rrect;rSize=5;strokeColor=#DFDFDF;html=1;whiteSpace=wrap;fillColor=#ffffff;fontColor=#000000;verticalAlign=bottom;align=left;spacing=20;spacingBottom=50;fontSize=14;fontFamily=Helvetica;" vertex="1" parent="1">
          <mxGeometry x="650" y="120" width="250" height="350" as="geometry" />
        </mxCell>
        <mxCell id="Znx6HxjQfEbAznS1fHN6-5" value="Image cap" style="html=1;shadow=0;dashed=0;shape=mxgraph.bootstrap.topButton;rSize=5;perimeter=none;whiteSpace=wrap;fillColor=#868E96;strokeColor=#DFDFDF;fontColor=#DEE2E6;resizeWidth=1;fontSize=18;fontFamily=Helvetica;" vertex="1" parent="Znx6HxjQfEbAznS1fHN6-4">
          <mxGeometry width="250" height="180" relative="1" as="geometry" />
        </mxCell>
        <mxCell id="Znx6HxjQfEbAznS1fHN6-6" value="Go somewhere" style="html=1;shadow=0;dashed=0;shape=mxgraph.bootstrap.rrect;rSize=5;perimeter=none;whiteSpace=wrap;fillColor=#0085FC;strokeColor=none;fontColor=#ffffff;resizeWidth=1;fontSize=14;fontFamily=Helvetica;" vertex="1" parent="Znx6HxjQfEbAznS1fHN6-4">
          <mxGeometry y="1" width="120" height="40" relative="1" as="geometry">
            <mxPoint x="20" y="-60" as="offset" />
          </mxGeometry>
        </mxCell>
      </root>
    </mxGraphModel>
  </diagram>
</mxfile>
